# xmcd
#
# Track frame offsets: 
#        150
#        16796
#        40918
#        62867
#        89186
#        116237
#        147904
#        168910
#        189599
#        206256
#        226420
#
# Disc length: 3237 seconds
#
# Revision: 0
# Processed by: cddbd v1.5.1PL0 Copyright (c) Steve Scherf et al.
# Submitted via: ExactAudioCopy v0.95b1
#
DISCID=980ca30b
DTITLE=Johnny Laws - My Little Girl
DYEAR=1900
DGENRE=Blues
TTITLE0=Like A Fish
TTITLE1=Can't Take No More
TTITLE2=Lie To Me
TTITLE3=Somebody Loan Me A Dime
TTITLE4=Cryin For My Baby
TTITLE5=(I'm Your) Hoochie Coochie Man
TTITLE6=I Should Have Quit You
TTITLE7=Big Question
TTITLE8=Don't You Lie
TTITLE9=My Little Girl
TTITLE10=Mother In Law Blues
EXTD=Wolf Records\n\n\n
EXTT0=
EXTT1=
EXTT2=
EXTT3=
EXTT4=
EXTT5=
EXTT6=
EXTT7=
EXTT8=
EXTT9=
EXTT10=
PLAYORDER=
